<svg id="Layer_1" data-name="Layer 1" xmlns="http://www.w3.org/2000/svg" viewBox="0 0 40 40"><defs><style>.cls-1{fill:#000091;}</style></defs><path class="cls-1" d="M28.2,6.58a1.17,1.17,0,0,0-.34-.82,1.25,1.25,0,0,0-1.64,0l-9.69,9.69a1.42,1.42,0,0,0-.26.38,1.19,1.19,0,0,0,0,.89,1.21,1.21,0,0,0,.63.63,1.32,1.32,0,0,0,.44.08h6.88l-8,8v-3a1.16,1.16,0,0,0-2.32,0v5.81a1.16,1.16,0,0,0,1.16,1.16H20.9a1.16,1.16,0,0,0,0-2.32h-3l10-10a1.47,1.47,0,0,0,.25-.38,1.21,1.21,0,0,0,0-.84l0-.05a1.21,1.21,0,0,0-.63-.63,1.19,1.19,0,0,0-.44-.09H20.15l7.71-7.7A1.17,1.17,0,0,0,28.2,6.58Z"/><path class="cls-1" d="M39.29,1.48h0a1,1,0,0,0-.77-.76A39.93,39.93,0,0,0,30.89,0C25.25,0,17.35,1.17,11.77,6.75,3.41,15.11,4.9,28.63,5.56,32.57l.07.4L.3,38.3A1,1,0,0,0,1,40h.11a1,1,0,0,0,.59-.27L7,34.37l.4.07a41.37,41.37,0,0,0,6.68.54c5.65,0,13.56-1.17,19.14-6.75C42.86,18.62,39.44,2.17,39.29,1.48ZM31.84,26.82C26.78,31.89,19.34,33,14,33a41,41,0,0,1-5.86-.42l-.58-.08-.08-.58C6.93,28.19,5.73,15.6,13.18,8.16s20-6.26,23.71-5.71l.58.08.08.58C38.1,6.79,39.29,19.37,31.84,26.82Z"/></svg>